<svg width="107" height="32" viewBox="0 0 107 32" fill="none" xmlns="http://www.w3.org/2000/svg">
<mask id="mask0_11025_20527" style="mask-type:luminance" maskUnits="userSpaceOnUse" x="0" y="0" width="107" height="32">
<path d="M106.664 0H0V32H106.664V0Z" fill="white"/>
</mask>
<g mask="url(#mask0_11025_20527)">
<path d="M99.1407 0H6.66071H5.93537C5.40497 0.0077124 4.87585 0.0547752 4.35241 0.1408C3.83236 0.22888 3.32881 0.395776 2.85905 0.635736C2.38659 0.87728 1.95473 1.1911 1.57905 1.5659C1.20345 1.94085 0.889534 2.37286 0.648894 2.8459C0.40603 3.32229 0.23767 3.8331 0.149694 4.36054C0.0612777 4.88294 0.0142057 5.4115 0.00889373 5.94134C-0.00390627 6.18666 -0.00390625 6.4256 -0.00390625 6.6688V25.3336C-0.00390625 25.5789 -0.00390627 25.8178 0.00889373 26.0632C0.0143841 26.593 0.0614585 27.1215 0.149694 27.644C0.23691 28.1639 0.403094 28.6675 0.642494 29.1373C1.12643 30.0928 1.90001 30.8708 2.85265 31.3602C3.32257 31.6006 3.82601 31.7689 4.34601 31.8594C4.8695 31.9448 5.39857 31.9911 5.92897 31.9981H6.65431H99.9903H100.718C101.246 31.9916 101.774 31.9452 102.296 31.8594C102.821 31.7686 103.329 31.6003 103.805 31.3602C104.278 31.1212 104.71 30.8071 105.085 30.4301C105.462 30.0558 105.778 29.6237 106.019 29.1501C106.256 28.6798 106.421 28.1763 106.507 27.6568C106.596 27.1342 106.645 26.6058 106.654 26.076V25.3464V24.493V7.53064V6.67728V5.94981C106.645 5.41994 106.596 4.89157 106.507 4.36901C106.42 3.84968 106.255 3.34637 106.019 2.87565C105.535 1.91741 104.763 1.13533 103.811 0.639888C103.335 0.402392 102.827 0.237712 102.302 0.151352C101.781 0.064856 101.253 0.017792 100.724 0.010552H99.9967L99.1407 0Z" fill="#B6B6B6"/>
</g>
<mask id="mask1_11025_20527" style="mask-type:luminance" maskUnits="userSpaceOnUse" x="0" y="0" width="107" height="32">
<path d="M106.664 0H0V32H106.664V0Z" fill="white"/>
</mask>
<g mask="url(#mask1_11025_20527)">
<path d="M6.66904 31.3091H5.95437C5.45981 31.3027 4.96637 31.2599 4.47813 31.1811C4.02362 31.1039 3.58301 30.9601 3.17037 30.7544C2.35069 30.3343 1.68301 29.6681 1.26101 28.8493C1.05334 28.4368 0.909486 27.9951 0.834334 27.5395C0.752766 27.0501 0.709254 26.5551 0.704206 26.0589C0.704206 25.8925 0.691406 25.3379 0.691406 25.3379V6.66907C0.691406 6.66907 0.691406 6.12294 0.704206 5.96294C0.707894 5.46612 0.750694 4.97038 0.832206 4.4803C0.906382 4.02301 1.05028 3.57982 1.25887 3.16614C1.46623 2.75911 1.7378 2.38813 2.06311 2.0675C2.38805 1.74224 2.76157 1.46946 3.17031 1.25894C3.58198 1.05285 4.02199 0.90906 4.47591 0.832276C4.96545 0.751772 5.46039 0.708268 5.95647 0.702148H100.716C101.208 0.706356 101.699 0.749154 102.184 0.830149C102.642 0.905357 103.087 1.0492 103.502 1.25682C104.324 1.68062 104.991 2.35242 105.409 3.17682C105.616 3.58732 105.76 4.02674 105.836 4.48026C105.918 4.97404 105.964 5.47314 105.972 5.97362V6.67762V7.53098V24.4694V25.3227V26.0587C105.965 26.5492 105.92 27.0384 105.838 27.5222C105.765 27.9811 105.621 28.4259 105.412 28.8406C104.988 29.6563 104.321 30.3203 103.504 30.7414C103.09 30.9492 102.646 31.0931 102.188 31.168C101.7 31.2473 101.206 31.2901 100.712 31.296H100.004H6.66767L6.66904 31.3091Z" fill="black"/>
</g>
<mask id="mask2_11025_20527" style="mask-type:luminance" maskUnits="userSpaceOnUse" x="0" y="0" width="107" height="32">
<path d="M106.664 0H0V32H106.664V0Z" fill="white"/>
</mask>
<g mask="url(#mask2_11025_20527)">
<path d="M39.5919 21.6023H35.8393L34.9283 24.1068H33.2793L36.9487 14.75H38.5059L42.2585 24.1068H40.5327L39.5919 21.6023ZM36.3171 20.3223H39.1119L38.1113 17.6428C37.9747 17.2738 37.8383 16.8642 37.7059 16.4162C37.5843 16.813 37.4521 17.2162 37.3113 17.63L36.3171 20.3223Z" fill="white"/>
</g>
<mask id="mask3_11025_20527" style="mask-type:luminance" maskUnits="userSpaceOnUse" x="0" y="0" width="107" height="32">
<path d="M106.664 0H0V32H106.664V0Z" fill="white"/>
</mask>
<g mask="url(#mask3_11025_20527)">
<path d="M42.9223 18.8439C42.9223 18.3276 42.9052 17.7587 42.8711 17.1372H44.3644C44.4205 17.4298 44.459 17.7255 44.4796 18.0226C44.7409 17.7095 45.0669 17.4566 45.4351 17.2813C45.8033 17.1059 46.2052 17.0124 46.6129 17.0071C47.0911 16.9995 47.5606 17.1347 47.9616 17.3955C48.3625 17.6562 48.6765 18.0305 48.8637 18.4706C49.1261 19.0756 49.2507 19.7315 49.2284 20.3906C49.2446 21.1093 49.0989 21.8223 48.8017 22.477C48.5533 23.0203 48.1475 23.4766 47.6369 23.7868C47.1117 24.0904 46.5134 24.2446 45.9068 24.2327C45.4295 24.2324 44.9557 24.1516 44.5052 23.9938V26.8802L42.9095 27.0167L42.9223 18.8439ZM47.1164 22.4002C47.4407 21.9735 47.6049 21.3335 47.6049 20.4802C47.6049 19.7023 47.4698 19.1333 47.1996 18.7735C47.0775 18.6063 46.9167 18.4711 46.7309 18.3798C46.5451 18.2883 46.3399 18.2434 46.1329 18.2487C45.8349 18.2447 45.5408 18.3183 45.2796 18.462C45.0022 18.6192 44.7498 18.817 44.5308 19.0487V22.782C44.7076 22.8654 44.8938 22.927 45.0855 22.9655C45.2916 23.0101 45.5018 23.033 45.7127 23.0338C45.9805 23.0498 46.2482 23.0005 46.4927 22.8902C46.7373 22.7798 46.9513 22.6116 47.1164 22.4002Z" fill="white"/>
</g>
<mask id="mask4_11025_20527" style="mask-type:luminance" maskUnits="userSpaceOnUse" x="0" y="0" width="107" height="32">
<path d="M106.664 0H0V32H106.664V0Z" fill="white"/>
</mask>
<g mask="url(#mask4_11025_20527)">
<path d="M50.1996 18.8439C50.1996 18.3276 50.1826 17.7587 50.1484 17.1372H51.6418C51.6996 17.4295 51.7388 17.7253 51.7592 18.0226C52.3806 17.3456 53.0917 17.0071 53.8924 17.0071C54.3706 16.9995 54.8401 17.1347 55.2411 17.3955C55.642 17.6562 55.956 18.0305 56.1432 18.4706C56.4056 19.0756 56.5302 19.7315 56.5079 20.3906C56.5275 21.1084 56.3853 21.8215 56.0919 22.477C55.8428 23.0206 55.4363 23.4769 54.925 23.7868C54.3998 24.0907 53.8015 24.2449 53.1948 24.2327C52.7176 24.2324 52.2437 24.1516 51.7932 23.9938V26.8802L50.1976 27.0167L50.1996 18.8439ZM54.4002 22.4002C54.7244 21.9635 54.8866 21.3235 54.8866 20.4802C54.8866 19.7023 54.7522 19.1333 54.4834 18.7735C54.3613 18.6063 54.2004 18.4711 54.0147 18.3798C53.8289 18.2883 53.6237 18.2434 53.4168 18.2487C53.1187 18.2451 52.8247 18.3186 52.5634 18.462C52.286 18.6192 52.0336 18.817 51.8146 19.0487V22.782C51.9916 22.8647 52.1778 22.9263 52.3692 22.9655C52.5754 23.0101 52.7856 23.033 52.9964 23.0338C53.2642 23.0495 53.5318 23 53.7763 22.8896C54.0208 22.7793 54.2348 22.6114 54.4002 22.4002Z" fill="white"/>
</g>
<mask id="mask5_11025_20527" style="mask-type:luminance" maskUnits="userSpaceOnUse" x="0" y="0" width="107" height="32">
<path d="M106.664 0H0V32H106.664V0Z" fill="white"/>
</mask>
<g mask="url(#mask5_11025_20527)">
<path d="M59.4412 23.6644C58.7596 23.2906 58.2058 22.7205 57.852 22.0282C57.4652 21.2459 57.2748 20.3812 57.2972 19.5088C57.2696 18.5753 57.4904 17.6514 57.9372 16.8314C58.3407 16.1198 58.9467 15.5444 59.678 15.178C60.4468 14.8025 61.2931 14.6132 62.1484 14.6256C62.6672 14.6232 63.1844 14.6835 63.6888 14.8048C64.1604 14.9158 64.6184 15.0789 65.054 15.2912L64.6402 16.5178C63.8856 16.1372 63.0553 15.9301 62.2104 15.912C61.6139 15.902 61.0252 16.0492 60.5036 16.3386C60.0088 16.6227 59.611 17.0495 59.3624 17.5632C59.0764 18.1724 58.9376 18.8403 58.957 19.513C58.9464 20.1191 59.0521 20.7216 59.2684 21.288C59.4649 21.7892 59.8104 22.218 60.2584 22.5168C60.7687 22.836 61.3636 22.9936 61.965 22.969C62.2767 22.9682 62.5878 22.9418 62.8952 22.89C63.1925 22.8428 63.4848 22.7671 63.7676 22.664V20.761H61.6044V19.5216H65.3186V23.466C64.7797 23.7172 64.2154 23.9096 63.6354 24.04C63.0603 24.1724 62.472 24.2397 61.8818 24.2404C61.0324 24.2608 60.192 24.0625 59.4412 23.6644Z" fill="white"/>
</g>
<mask id="mask6_11025_20527" style="mask-type:luminance" maskUnits="userSpaceOnUse" x="0" y="0" width="107" height="32">
<path d="M106.664 0H0V32H106.664V0Z" fill="white"/>
</mask>
<g mask="url(#mask6_11025_20527)">
<path d="M70.9875 24.1068C70.9271 23.8022 70.89 23.4934 70.8765 23.1832C70.61 23.4932 70.2844 23.747 69.9186 23.9298C69.5058 24.1389 69.0481 24.2444 68.5853 24.237C68.2067 24.2418 67.8318 24.1608 67.4888 24.0002C67.1625 23.8472 66.8898 23.5997 66.7059 23.2898C66.502 22.9386 66.4008 22.5372 66.4136 22.1314C66.4016 21.8236 66.4615 21.5172 66.5885 21.2364C66.7155 20.9558 66.9062 20.7085 67.1453 20.5144C67.6317 20.1104 68.4431 19.9092 69.5795 19.9106C70.0027 19.9104 70.4255 19.9404 70.8445 20.0002V19.8636C70.8445 19.2492 70.7137 18.8155 70.452 18.5624C70.1391 18.2932 69.7331 18.1576 69.3213 18.1848C68.9525 18.1892 68.5856 18.2394 68.229 18.334C67.8758 18.4192 67.5315 18.5378 67.2008 18.6882L66.9491 17.5276C67.3108 17.3732 67.6866 17.254 68.0712 17.1714C68.5549 17.062 69.0494 17.0076 69.5453 17.0092C70.0707 16.9949 70.5935 17.0886 71.0813 17.2844C71.5103 17.4741 71.8597 17.8076 72.0691 18.2274C72.3309 18.7894 72.4531 19.4064 72.4253 20.0258V22.7992C72.4253 23.0836 72.4424 23.5202 72.4765 24.109L70.9875 24.1068ZM70.0317 22.8268C70.3392 22.684 70.6155 22.4817 70.8445 22.2316V20.9516C70.4904 20.9098 70.1344 20.8863 69.7779 20.8812C69.1194 20.8812 68.6635 20.988 68.4104 21.2012C68.2869 21.3056 68.1887 21.4366 68.1233 21.5844C68.0579 21.7323 68.027 21.8931 68.0328 22.0546C68.0212 22.1942 68.0398 22.3346 68.0873 22.4664C68.1348 22.5982 68.21 22.7182 68.308 22.8184C68.5159 22.9937 68.7831 23.083 69.0547 23.068C69.3944 23.0628 69.7286 22.9804 70.0317 22.8268Z" fill="white"/>
</g>
<mask id="mask7_11025_20527" style="mask-type:luminance" maskUnits="userSpaceOnUse" x="0" y="0" width="107" height="32">
<path d="M106.664 0H0V32H106.664V0Z" fill="white"/>
</mask>
<g mask="url(#mask7_11025_20527)">
<path d="M73.6582 22.4347V14.2003L75.2454 14.0723V22.1515C75.2228 22.3757 75.2762 22.6011 75.3969 22.7915C75.4579 22.857 75.533 22.9078 75.6165 22.9399C75.7 22.9721 75.7899 22.9848 75.879 22.9771C76.0237 22.9708 76.1671 22.9464 76.3057 22.9045L76.4935 24.048C76.3148 24.1155 76.1296 24.164 75.9409 24.1931C75.7372 24.2283 75.5311 24.2469 75.3244 24.2485C74.2136 24.2414 73.6582 23.6364 73.6582 22.4347Z" fill="white"/>
</g>
<mask id="mask8_11025_20527" style="mask-type:luminance" maskUnits="userSpaceOnUse" x="0" y="0" width="107" height="32">
<path d="M106.664 0H0V32H106.664V0Z" fill="white"/>
</mask>
<g mask="url(#mask8_11025_20527)">
<path d="M77.627 22.4347V14.2003L79.2163 14.0723V22.1515C79.1937 22.3757 79.247 22.6011 79.3678 22.7915C79.4286 22.857 79.5038 22.9078 79.587 22.9399C79.671 22.9721 79.7606 22.9848 79.8502 22.9771C79.9942 22.9708 80.1382 22.9464 80.2766 22.9045L80.4622 24.048C80.2846 24.1155 80.0998 24.1641 79.9118 24.1931C79.707 24.2285 79.5006 24.2471 79.2934 24.2485C78.1838 24.2414 77.6284 23.6364 77.627 22.4347Z" fill="white"/>
</g>
<mask id="mask9_11025_20527" style="mask-type:luminance" maskUnits="userSpaceOnUse" x="0" y="0" width="107" height="32">
<path d="M106.664 0H0V32H106.664V0Z" fill="white"/>
</mask>
<g mask="url(#mask9_11025_20527)">
<path d="M86.9892 20.8253H82.43C82.5028 22.2859 83.198 23.0162 84.5164 23.0162C84.8548 23.0145 85.1924 22.9744 85.5212 22.8967C85.858 22.8185 86.1868 22.7114 86.5052 22.5767L86.8548 23.669C86.0332 24.0561 85.134 24.2502 84.2268 24.2365C83.5764 24.2553 82.9316 24.1084 82.3532 23.8098C81.8524 23.5391 81.4508 23.1163 81.206 22.6023C80.9348 22.0069 80.8036 21.3575 80.822 20.7037C80.8036 20.0185 80.9436 19.3384 81.2292 18.7154C81.4724 18.1867 81.8668 17.7415 82.362 17.4354C82.8692 17.1365 83.45 16.9844 84.0388 16.9959C84.6228 16.9753 85.1996 17.1371 85.6876 17.4589C86.1284 17.7645 86.4692 18.1925 86.6692 18.6898C86.8892 19.2316 86.998 19.8119 86.9892 20.3965V20.8253ZM85.434 19.8119C85.4372 19.359 85.2868 18.9184 85.0076 18.5618C84.882 18.4216 84.7276 18.3106 84.5548 18.2369C84.382 18.1632 84.1948 18.1284 84.0068 18.1351C83.818 18.1313 83.63 18.1672 83.4556 18.2407C83.2812 18.3142 83.1244 18.4237 82.9956 18.5618C82.6948 18.9122 82.5108 19.3477 82.4684 19.8077L85.434 19.8119Z" fill="white"/>
</g>
<mask id="mask10_11025_20527" style="mask-type:luminance" maskUnits="userSpaceOnUse" x="0" y="0" width="107" height="32">
<path d="M106.664 0H0V32H106.664V0Z" fill="white"/>
</mask>
<g mask="url(#mask10_11025_20527)">
<path d="M88.1973 18.889C88.1973 18.507 88.1781 17.9226 88.1445 17.1396H89.6373C89.6629 17.3338 89.6869 17.5662 89.7125 17.833C89.7381 18.0996 89.7509 18.3214 89.7589 18.49C89.9197 18.2181 90.1021 17.9598 90.3053 17.7178C90.4813 17.5109 90.6941 17.338 90.9325 17.2078C91.1829 17.0725 91.4645 17.0042 91.7493 17.0094C91.9653 17.0042 92.1813 17.0308 92.3893 17.0884L92.1893 18.4708C91.9389 18.3985 91.6765 18.3801 91.4197 18.4169C91.1621 18.4537 90.9149 18.5448 90.6957 18.6842C90.3429 18.9466 90.0349 19.2651 89.7845 19.627V24.107H88.1973V18.889Z" fill="white"/>
</g>
<mask id="mask11_11025_20527" style="mask-type:luminance" maskUnits="userSpaceOnUse" x="0" y="0" width="107" height="32">
<path d="M106.664 0H0V32H106.664V0Z" fill="white"/>
</mask>
<g mask="url(#mask11_11025_20527)">
<path d="M93.2756 26.9594C93.0804 26.9279 92.8892 26.8816 92.7012 26.8207L92.9916 25.658C93.126 25.6942 93.262 25.7233 93.3988 25.7455C93.5524 25.7728 93.7084 25.7871 93.8644 25.7882C94.5748 25.7882 95.1044 25.3338 95.4516 24.425L95.5556 24.1668L92.9852 17.1396H94.6916L95.9972 21.0671C96.1644 21.5723 96.2996 22.0874 96.4028 22.6095C96.5244 22.106 96.6652 21.6026 96.8292 21.0991L98.1308 17.1396H99.7372L97.1772 24.1988C96.9836 24.7675 96.7212 25.3099 96.394 25.8138C96.1452 26.1944 95.8044 26.5068 95.4044 26.7226C94.9748 26.9321 94.5012 27.0346 94.0244 27.0212C93.7732 27.0222 93.5228 27.0015 93.2756 26.9594Z" fill="white"/>
</g>
<mask id="mask12_11025_20527" style="mask-type:luminance" maskUnits="userSpaceOnUse" x="0" y="0" width="107" height="32">
<path d="M106.664 0H0V32H106.664V0Z" fill="white"/>
</mask>
<g mask="url(#mask12_11025_20527)">
<path d="M33.2793 5.84082H36.1167L36.0377 6.52776H34.1071V7.8568H35.9267V8.49677H34.1071V9.96877H36.1401L36.0697 10.6664H33.2793V5.84082Z" fill="white"/>
</g>
<mask id="mask13_11025_20527" style="mask-type:luminance" maskUnits="userSpaceOnUse" x="0" y="0" width="107" height="32">
<path d="M106.664 0H0V32H106.664V0Z" fill="white"/>
</mask>
<g mask="url(#mask13_11025_20527)">
<path d="M38.0786 8.20458L36.5852 5.84082H37.5324L38.5479 7.57738L39.6145 5.84082H40.534L39.0407 8.17474L40.6556 10.6664H39.6956L38.5457 8.76778L37.3745 10.6664H36.4551L38.0786 8.20458Z" fill="white"/>
</g>
<mask id="mask14_11025_20527" style="mask-type:luminance" maskUnits="userSpaceOnUse" x="0" y="0" width="107" height="32">
<path d="M106.664 0H0V32H106.664V0Z" fill="white"/>
</mask>
<g mask="url(#mask14_11025_20527)">
<path d="M41.2676 5.84082H42.5689C43.179 5.84082 43.6469 5.96527 43.9726 6.21416C44.1346 6.34162 44.2635 6.50632 44.3481 6.69427C44.4329 6.88221 44.4709 7.08782 44.459 7.29362C44.4681 7.58757 44.3941 7.87813 44.2457 8.13202C44.1009 8.37074 43.8896 8.56202 43.6377 8.68242C43.3579 8.81474 43.0512 8.88042 42.7417 8.87442C42.5269 8.87138 42.3127 8.8493 42.1017 8.80834V10.6664H41.2676V5.84082ZM43.3582 7.99546C43.4493 7.90806 43.5202 7.80196 43.5663 7.68447C43.6123 7.56698 43.6323 7.4409 43.6249 7.31493C43.6357 7.1942 43.6167 7.07267 43.5695 6.96105C43.5222 6.84943 43.4482 6.75116 43.354 6.67493C43.1139 6.52871 42.8345 6.46016 42.554 6.47866H42.1017V8.1853C42.2602 8.21386 42.4207 8.23026 42.5817 8.23434C42.8614 8.25538 43.1387 8.17005 43.3582 7.99546Z" fill="white"/>
</g>
<mask id="mask15_11025_20527" style="mask-type:luminance" maskUnits="userSpaceOnUse" x="0" y="0" width="107" height="32">
<path d="M106.664 0H0V32H106.664V0Z" fill="white"/>
</mask>
<g mask="url(#mask15_11025_20527)">
<path d="M45.2812 5.84082H46.1133V9.95394H48.11L48.0397 10.6664H45.2812V5.84082Z" fill="white"/>
</g>
<mask id="mask16_11025_20527" style="mask-type:luminance" maskUnits="userSpaceOnUse" x="0" y="0" width="107" height="32">
<path d="M106.664 0H0V32H106.664V0Z" fill="white"/>
</mask>
<g mask="url(#mask16_11025_20527)">
<path d="M49.378 10.4301C49.0283 10.2333 48.7459 9.93607 48.5673 9.57679C48.3732 9.17855 48.2774 8.73967 48.2879 8.29679C48.2776 7.83398 48.3801 7.37567 48.5865 6.96127C48.7757 6.58777 49.0731 6.27998 49.4399 6.07807C49.8504 5.86302 50.31 5.75861 50.7732 5.77513C51.2112 5.76338 51.6445 5.86713 52.0297 6.07593C52.3772 6.27337 52.6575 6.57067 52.834 6.92929C53.0242 7.32337 53.1185 7.75689 53.1092 8.19441C53.1208 8.66233 53.0175 9.12601 52.8084 9.54481C52.6174 9.91697 52.3204 10.2243 51.9551 10.428C51.5516 10.6426 51.0999 10.7499 50.6431 10.7395C50.2013 10.7507 49.7647 10.6438 49.378 10.4301ZM51.5369 9.83919C51.7721 9.68335 51.9549 9.46031 52.0617 9.19919C52.1814 8.90023 52.2402 8.58031 52.2345 8.25839C52.2399 7.94229 52.1878 7.62786 52.0809 7.33039C51.9852 7.07272 51.8142 6.84974 51.5903 6.69039C51.3304 6.53144 51.0319 6.44733 50.7273 6.44733C50.4228 6.44733 50.1241 6.53144 49.8644 6.69039C49.6285 6.85401 49.4448 7.08214 49.3353 7.34746C49.214 7.63409 49.1536 7.94289 49.1582 8.2541C49.1531 8.57482 49.2096 8.89346 49.3247 9.19282C49.4268 9.46666 49.6137 9.70082 49.8581 9.86122C50.1025 10.0215 50.3916 10.0998 50.6836 10.0845C50.9864 10.092 51.2843 10.0063 51.5369 9.83919Z" fill="white"/>
</g>
<mask id="mask17_11025_20527" style="mask-type:luminance" maskUnits="userSpaceOnUse" x="0" y="0" width="107" height="32">
<path d="M106.664 0H0V32H106.664V0Z" fill="white"/>
</mask>
<g mask="url(#mask17_11025_20527)">
<path d="M54.0371 5.84094H55.5475C55.99 5.80962 56.4304 5.92591 56.7997 6.17162C56.9414 6.28287 57.0542 6.42669 57.1286 6.59084C57.2028 6.75499 57.2364 6.93465 57.2264 7.11454C57.2314 7.34847 57.1786 7.58002 57.0728 7.78868C56.9802 7.97165 56.8509 8.13356 56.6931 8.26444C56.5519 8.37836 56.3935 8.46916 56.2237 8.53324L57.7171 10.6665H56.7464L55.4899 8.74652H54.8776V10.6665H54.0371V5.84094ZM55.3448 8.12366C55.5301 8.12766 55.7137 8.08742 55.8803 8.0063C56.0303 7.93424 56.1569 7.82106 56.2451 7.6799C56.3331 7.52924 56.3781 7.35731 56.3752 7.18284C56.3838 7.08214 56.3673 6.98088 56.327 6.88817C56.2868 6.79545 56.2242 6.71417 56.1448 6.65164C55.9448 6.52642 55.7104 6.46745 55.475 6.4831H54.8712V8.13214L55.3448 8.12366Z" fill="white"/>
</g>
<mask id="mask18_11025_20527" style="mask-type:luminance" maskUnits="userSpaceOnUse" x="0" y="0" width="107" height="32">
<path d="M106.664 0H0V32H106.664V0Z" fill="white"/>
</mask>
<g mask="url(#mask18_11025_20527)">
<path d="M58.3672 5.84082H61.2109L61.1299 6.52776H59.2099V7.8568H61.0125V8.49677H59.1928V9.96877H61.2259L61.164 10.6664H58.3672V5.84082Z" fill="white"/>
</g>
<mask id="mask19_11025_20527" style="mask-type:luminance" maskUnits="userSpaceOnUse" x="0" y="0" width="107" height="32">
<path d="M106.664 0H0V32H106.664V0Z" fill="white"/>
</mask>
<g mask="url(#mask19_11025_20527)">
<path d="M64.3047 5.84082H65.1367V10.6664H64.3047V5.84082Z" fill="white"/>
</g>
<mask id="mask20_11025_20527" style="mask-type:luminance" maskUnits="userSpaceOnUse" x="0" y="0" width="107" height="32">
<path d="M106.664 0H0V32H106.664V0Z" fill="white"/>
</mask>
<g mask="url(#mask20_11025_20527)">
<path d="M67.341 6.53628H65.8477L65.9202 5.84082H69.6749L69.5981 6.53628H68.1752V10.6664H67.341V6.53628Z" fill="white"/>
</g>
<mask id="mask21_11025_20527" style="mask-type:luminance" maskUnits="userSpaceOnUse" x="0" y="0" width="107" height="32">
<path d="M106.664 0H0V32H106.664V0Z" fill="white"/>
</mask>
<g mask="url(#mask21_11025_20527)">
<path d="M73.2901 10.43C72.9412 10.2331 72.6594 9.93584 72.4816 9.57672C72.2858 9.17904 72.1892 8.73984 72.2 8.29672C72.1898 7.83391 72.2924 7.3756 72.4987 6.9612C72.6884 6.58809 72.9856 6.28044 73.352 6.078C73.7595 5.86189 74.2158 5.75461 74.6768 5.76653C75.12 5.7546 75.5582 5.8614 75.9461 6.07586C76.2942 6.27267 76.5745 6.57013 76.7504 6.92922C76.9414 7.32311 77.0364 7.75658 77.0277 8.19434C77.0396 8.6625 76.9356 9.12642 76.7248 9.54474C76.5344 9.91738 76.2374 10.2248 75.8715 10.4279C75.4683 10.6431 75.0164 10.7503 74.5595 10.7394C74.1164 10.7513 73.6781 10.6445 73.2901 10.43ZM75.4512 9.83912C75.6852 9.68256 75.8672 9.45968 75.9739 9.19912C76.0936 8.90016 76.1524 8.58024 76.1467 8.25832C76.152 7.94221 76.1 7.62779 75.9931 7.33032C75.8982 7.07279 75.728 6.84979 75.5045 6.69032C75.2444 6.53118 74.9455 6.44697 74.6405 6.44697C74.3356 6.44697 74.0367 6.53118 73.7765 6.69032C73.5407 6.85394 73.357 7.08207 73.2475 7.34738C73.1272 7.63433 73.0668 7.9429 73.0704 8.25402C73.0653 8.57474 73.1218 8.89338 73.2368 9.19274C73.3386 9.45586 73.516 9.68298 73.7467 9.84554C73.9992 10.0122 74.2976 10.0958 74.6 10.0844C74.902 10.0907 75.1988 10.0051 75.4512 9.83912Z" fill="white"/>
</g>
<mask id="mask22_11025_20527" style="mask-type:luminance" maskUnits="userSpaceOnUse" x="0" y="0" width="107" height="32">
<path d="M106.664 0H0V32H106.664V0Z" fill="white"/>
</mask>
<g mask="url(#mask22_11025_20527)">
<path d="M77.9512 5.84082H78.9069L81.2942 9.58058C81.2726 9.22434 81.2646 8.89794 81.2646 8.59714V5.84082H82.0366V10.6664H81.111L78.6872 6.86698C78.7107 7.29364 78.7235 7.67978 78.7235 8.01474V10.6664H77.9512V5.84082Z" fill="white"/>
</g>
<mask id="mask23_11025_20527" style="mask-type:luminance" maskUnits="userSpaceOnUse" x="0" y="0" width="107" height="32">
<path d="M106.664 0H0V32H106.664V0Z" fill="white"/>
</mask>
<g mask="url(#mask23_11025_20527)">
<path fill-rule="evenodd" clip-rule="evenodd" d="M21.5478 5.86621H12.6926C8.51767 5.86621 6.99023 7.39365 6.99023 11.5686V20.4302C6.99023 24.6051 8.51767 26.1326 12.6926 26.1326H21.5478C25.7228 26.1326 27.2524 24.6051 27.2524 20.4302V11.5686C27.2566 7.39373 25.7292 5.86621 21.5478 5.86621Z" fill="#C8102E"/>
</g>
<mask id="mask24_11025_20527" style="mask-type:luminance" maskUnits="userSpaceOnUse" x="0" y="0" width="107" height="32">
<path d="M106.664 0H0V32H106.664V0Z" fill="white"/>
</mask>
<g mask="url(#mask24_11025_20527)">
<path d="M11.0014 16H11.539V18.6518H11.0014V17.5744H9.7876V18.6518H9.25V16H9.7876V17.0666H11.0014V16ZM14.0308 17.5168C14.0308 17.9434 13.8174 18.1782 13.4292 18.1782C13.041 18.1782 12.8234 17.9434 12.8234 17.4934V16H12.2858V17.5146C12.2858 18.2592 12.6996 18.6858 13.4206 18.6858C14.1418 18.6858 14.5684 18.2592 14.5684 17.4912V16H14.0308V17.5168ZM20.243 17.8218L19.6414 16H19.1998L18.6026 17.824L18.0158 16H17.4442L18.3678 18.6518H18.8138L19.4132 16.911L20.0148 18.6518H20.465L21.3886 16H20.8298L20.243 17.8218ZM22.3508 17.5082H23.33V17.0282H22.3508V16.4864H23.7716V16H21.8218V18.6454H23.8228V18.1674H22.3508V17.5082ZM24.4628 18.6454H24.994V16H24.4628V18.6454ZM15.6308 18.097L15.3898 18.6474H14.8414L15.9998 16H16.4734L17.6362 18.6474H17.0814L16.8532 18.0992L15.6308 18.097ZM15.8314 17.6192H16.6398L16.2346 16.672L15.8314 17.6192Z" fill="white"/>
</g>
<mask id="mask25_11025_20527" style="mask-type:luminance" maskUnits="userSpaceOnUse" x="0" y="0" width="107" height="32">
<path d="M106.664 0H0V32H106.664V0Z" fill="white"/>
</mask>
<g mask="url(#mask25_11025_20527)">
<path d="M17.1228 12.6267C16.2284 12.6261 15.3709 12.2706 14.7385 11.6382C14.1061 11.0058 13.7506 10.1482 13.75 9.25391H14.2257C14.2257 10.0222 14.531 10.7591 15.0742 11.3025C15.6175 11.8457 16.3544 12.1509 17.1228 12.1509C17.8911 12.1509 18.628 11.8457 19.1713 11.3025C19.7146 10.7591 20.0198 10.0222 20.0198 9.25391H20.4956C20.495 10.1482 20.1395 11.0058 19.5071 11.6382C18.8747 12.2706 18.0171 12.6261 17.1228 12.6267Z" fill="white"/>
</g>
</svg>
