<svg width="108" height="32" viewBox="0 0 108 32" fill="none" xmlns="http://www.w3.org/2000/svg">
<path d="M104 32H4.00001C1.80003 32 0 30.2 0 28V4.00002C0 1.8 1.79999 0 4.00001 0H104C106.2 0 108 1.8 108 4.00002V28C108 30.2 106.2 32 104 32Z" fill="black"/>
<path d="M104 0H4.00001C1.80003 0 0 1.8 0 4.00002V28C0 30.2 1.79999 32 4.00001 32H104C106.2 32 108 30.2 108 28V4.00002C108 1.8 106.2 0 104 0ZM104 0.63998C105.853 0.63998 107.36 2.14753 107.36 4.00002V28C107.36 29.8528 105.853 31.3603 104 31.3603H4.00001C2.14754 31.3603 0.640007 29.8528 0.640007 28V4.00002C0.640007 2.14753 2.14751 0.640016 4.00001 0.640016H104" fill="#A6A6A6"/>
<path d="M37.9332 8.19445C37.9332 8.8647 37.7347 9.39844 37.3372 9.79659C36.8857 10.27 36.2972 10.5069 35.5738 10.5069C34.881 10.5069 34.2919 10.2669 33.8075 9.78627C33.3223 9.30596 33.0801 8.71035 33.0801 7.99972C33.0801 7.28877 33.3223 6.69352 33.8075 6.21281C34.2919 5.73254 34.881 5.49219 35.5738 5.49219C35.9175 5.49219 36.2467 5.55942 36.5591 5.69349C36.8716 5.82789 37.1223 6.00629 37.3098 6.22971L36.8878 6.65188C36.5701 6.27221 36.1326 6.08251 35.5738 6.08251C35.0685 6.08251 34.6316 6.26006 34.2629 6.61535C33.8941 6.97101 33.7097 7.43223 33.7097 7.99972C33.7097 8.56725 33.8941 9.02844 34.2629 9.38413C34.6316 9.73942 35.0685 9.91693 35.5738 9.91693C36.1098 9.91693 36.5566 9.73845 36.9144 9.381C37.1467 9.14813 37.281 8.82443 37.3169 8.40877H35.5737V7.83221H37.8998C37.9222 7.95758 37.9332 8.07789 37.9332 8.19445" fill="white"/>
<path d="M37.9351 8.19437H37.855C37.8544 8.84934 37.6631 9.35805 37.2825 9.73996L37.2816 9.7406L37.2813 9.74125C36.8441 10.1984 36.2821 10.4259 35.5756 10.4269C34.9013 10.4259 34.3368 10.1959 33.8656 9.72964C33.3953 9.26245 33.1628 8.69212 33.1619 7.99964C33.1628 7.30685 33.3953 6.73683 33.8656 6.26997C34.3368 5.8034 34.9013 5.57308 35.5756 5.57211C35.909 5.57211 36.2265 5.63718 36.5293 5.76683C36.8324 5.89749 37.0719 6.0687 37.2503 6.28126L37.3116 6.22963L37.255 6.17308L36.8331 6.59553L36.8896 6.6518L36.9513 6.6006C36.6187 6.20213 36.1519 6.00125 35.5756 6.00244C35.0516 6.00179 34.5906 6.18904 34.2093 6.55782C33.8244 6.92778 33.6309 7.41496 33.6316 7.99964C33.6309 8.58436 33.8244 9.0715 34.2093 9.4415C34.5906 9.81028 35.0516 9.99749 35.5756 9.99685C36.1293 9.99782 36.6013 9.80996 36.9728 9.43748C37.2209 9.18867 37.3616 8.84406 37.3985 8.41556L37.4059 8.32869H35.6556V7.91213H37.9016V7.83213L37.8228 7.84619C37.8447 7.9675 37.855 8.08277 37.855 8.19437H38.015C38.015 8.07277 38.0037 7.9478 37.9803 7.81782L37.9685 7.75214H35.4956V8.48869H37.3187V8.40869L37.2391 8.40182C37.2038 8.80436 37.0756 9.10749 36.8597 9.3244C36.5159 9.66686 36.0941 9.83588 35.5756 9.83685C35.0891 9.8362 34.6763 9.6687 34.3203 9.32652C33.9678 8.98557 33.7925 8.55028 33.7916 7.99964C33.7925 7.44901 33.9678 7.01371 34.3203 6.67276C34.6763 6.33059 35.089 6.16308 35.5756 6.16243C36.1166 6.16373 36.5251 6.34245 36.8285 6.7034L36.8847 6.77027L37.3682 6.28622L37.42 6.23438L37.3728 6.17836C37.1763 5.94405 36.9144 5.75806 36.5925 5.62C36.27 5.4815 35.9297 5.41211 35.5756 5.41211C34.8644 5.4115 34.2506 5.66149 33.7528 6.15621C33.2531 6.64997 33.0013 7.2706 33.002 7.99964C33.0013 8.72836 33.2531 9.34935 33.7531 9.8434C34.2506 10.3378 34.8644 10.5875 35.5756 10.5869C36.3163 10.5875 36.9307 10.3415 37.3969 9.85181L37.339 9.79651L37.3956 9.8531C37.81 9.43902 38.0156 8.87965 38.015 8.19437H37.9351ZM41.6225 6.18933H39.4366V7.71126H41.4079V8.28803H39.4366V9.80996H41.6225V10.3996H38.8203V5.59965H41.6225V6.18933Z" fill="white"/>
<path d="M41.6224 6.18921V6.10921H39.3565V7.79114H41.3277V8.2077L39.3564 8.20791V9.88984H41.5424V10.3195H38.9002V5.67953H41.5424V6.18921H41.6224H41.7024V5.51953H38.7402V10.4795H41.7024V9.72984H39.5164V8.36791H41.4877V7.63114H39.5164V6.26921H41.7024V6.18921H41.6224ZM44.2233 10.3996H43.6062V6.18917H42.2655V5.59949H45.564V6.18917H44.2233V10.3995" fill="white"/>
<path d="M44.2234 10.3996V10.3195H43.6862V6.10921H42.3455V5.67956H45.484V6.10921H44.1434V10.3995H44.2234H44.3034V6.26921H45.644V5.51953H42.1855V6.26917H43.5262V10.4795H44.3034V10.3995H44.2234M47.9506 10.3996V5.59949H48.5671V10.3995H47.9506" fill="white"/>
<path d="M47.9511 10.3996H48.0311V5.67953H48.4876V10.3195H47.9511V10.3995V10.4795H48.6476V5.51953H47.8711V10.4795H47.9511V10.3995M51.3035 10.3996H50.6864V6.18917H49.3458V5.59949H52.6442V6.18917H51.3035V10.3995" fill="white"/>
<path d="M51.3034 10.3998V10.3197H50.7662V6.10941H49.4256V5.67976H52.564V6.10941H51.2234V10.3997H51.3034H51.3834V6.2694H52.724V5.51973H49.2656V6.26937H50.6062V10.4797H51.3834V10.3997H51.3034M55.824 9.37758C56.1793 9.73723 56.614 9.91689 57.1281 9.91689C57.6422 9.91689 58.0771 9.73723 58.4319 9.37758C58.7875 9.0179 58.9656 8.55812 58.9656 7.99972C58.9656 7.44136 58.7875 6.98158 58.4319 6.6219C58.0771 6.26221 57.6422 6.08251 57.1281 6.08251C56.614 6.08251 56.1793 6.26221 55.824 6.6219C55.4693 6.98158 55.2912 7.44132 55.2912 7.99972C55.2912 8.55812 55.4693 9.0179 55.824 9.37758ZM58.8881 9.77941C58.4162 10.2647 57.8293 10.5069 57.1281 10.5069C56.4262 10.5069 55.8396 10.2647 55.3687 9.77941C54.8965 9.29467 54.6615 8.70133 54.6615 7.99972C54.6615 7.29812 54.8965 6.70466 55.3687 6.22004C55.8396 5.73466 56.4262 5.49219 57.1281 5.49219C57.8256 5.49219 58.4109 5.73595 58.885 6.22317C59.3584 6.71034 59.5953 7.3025 59.5953 7.99972C59.5953 8.70133 59.359 9.29467 58.8881 9.77941Z" fill="white"/>
<path d="M55.8226 9.37751L55.7657 9.43374C56.1341 9.8078 56.5938 9.99782 57.1266 9.99685C57.6591 9.99782 58.1194 9.8078 58.4873 9.43374C58.8582 9.05931 59.0447 8.57494 59.0441 7.99964C59.0447 7.42438 58.8582 6.93997 58.4873 6.56555C58.1194 6.19148 57.6591 6.0015 57.1266 6.00244C56.5938 6.0015 56.1341 6.19148 55.7657 6.56555C55.3957 6.93997 55.2088 7.42438 55.2098 7.99964C55.2088 8.57491 55.3957 9.05931 55.7657 9.43374L55.8226 9.37751L55.8795 9.32124C55.5401 8.9759 55.3704 8.54151 55.3698 7.99964C55.3704 7.45782 55.5401 7.02342 55.8794 6.67805C56.2219 6.33278 56.631 6.1634 57.1266 6.16247C57.6219 6.1634 58.0319 6.33278 58.3735 6.67805C58.7135 7.02342 58.8832 7.45782 58.8838 7.99964C58.8832 8.54147 58.7135 8.9759 58.3735 9.32124C58.0319 9.66654 57.6219 9.83588 57.1266 9.83682C56.631 9.83588 56.2219 9.66654 55.8795 9.32124L55.8226 9.37751ZM58.8866 9.77933L58.8294 9.72374C58.3707 10.1937 57.8098 10.4259 57.1266 10.4269C56.4432 10.4259 55.8822 10.1937 55.4244 9.72374C54.9666 9.25213 54.7407 8.68342 54.7401 7.99964C54.7407 7.31587 54.9666 6.74715 55.4244 6.27558C55.8822 5.80556 56.4432 5.57308 57.1266 5.57214C57.8054 5.57308 58.365 5.80653 58.8263 6.279C59.2857 6.75276 59.5129 7.32058 59.5138 7.99964C59.5129 8.68342 59.2863 9.25213 58.8294 9.72374L58.8866 9.77933L58.9442 9.83491C59.4291 9.33684 59.6744 8.71901 59.6738 7.99964C59.6744 7.28438 59.4282 6.6678 58.941 6.1675C58.4535 5.66523 57.8429 5.41125 57.1266 5.41211C56.4066 5.41125 55.7942 5.66404 55.3098 6.16438V6.16402C54.8238 6.66245 54.5794 7.28028 54.5801 7.99964C54.5794 8.71901 54.8238 9.33684 55.3098 9.83524L55.3119 9.8375L55.3098 9.83491C55.7942 10.3352 56.4066 10.5875 57.1266 10.5869C57.8463 10.5875 58.4588 10.3352 58.9442 9.83491L58.8866 9.77933ZM60.4594 10.3997V5.59961H61.2101L63.5429 9.33368H63.5694L63.5429 8.40866V5.59961H64.1601V10.3996H63.5163L61.0757 6.48458H61.0491L61.0757 7.40993V10.3996H60.4594" fill="white"/>
<path d="M60.4609 10.3996H60.5409V5.67953H61.1671L63.4999 9.41359H63.6531L63.6243 8.40739V5.67956H64.0815V10.3195H63.5622L61.1215 6.4045H60.9684L60.9971 7.41114V10.3195H60.4609V10.3995V10.4795H61.1571V7.40859L61.1306 6.48234L61.0506 6.4845V6.5645H61.0771V6.4845L61.0093 6.52703L63.4734 10.4795H64.2415V5.51953H63.4643V8.40951L63.4909 9.33575L63.5709 9.3336V9.2536H63.5443V9.3336L63.6122 9.29113L61.2558 5.51953H60.3809V10.4795H60.4609V10.3995M85.5494 23.9995H87.0422V13.9986H85.5494L85.5494 23.9995ZM98.995 17.6012L97.2838 21.9371H97.2326L95.4566 17.6011H93.8486L96.5118 23.6614L94.9934 27.0323H96.551L100.655 17.6011L98.995 17.6012ZM90.5294 22.8636C90.0398 22.8636 89.3582 22.6192 89.3582 22.0143C89.3582 21.2423 90.2078 20.9464 90.9406 20.9464C91.5974 20.9464 91.9054 21.0879 92.3046 21.2812C92.1886 22.2074 91.391 22.8636 90.5294 22.8636ZM90.7094 17.3823C89.6286 17.3823 88.5094 17.8586 88.0462 18.9136L89.371 19.4667C89.6542 18.9136 90.1814 18.7333 90.735 18.7333C91.507 18.7333 92.2918 19.1967 92.3046 20.0202V20.123C92.0342 19.9686 91.4558 19.737 90.7478 19.737C89.3198 19.737 87.8654 20.5217 87.8654 21.9886C87.8654 23.3268 89.0366 24.1889 90.3486 24.1889C91.3526 24.1889 91.9054 23.7386 92.2534 23.2111H92.3046V23.983H93.7454V20.1486C93.7454 18.3733 92.4206 17.3823 90.7094 17.3823ZM81.4838 18.8186H79.3606V15.3905H81.4838C82.5998 15.3905 83.2334 16.3145 83.2334 17.1045C83.2334 17.8795 82.5998 18.8186 81.4838 18.8186ZM81.4454 13.9986H77.8686V23.9995H79.3606V20.2105H81.4454C83.0998 20.2105 84.7262 19.0126 84.7262 17.1045C84.7262 15.1964 83.0998 13.9986 81.4454 13.9986ZM61.9406 22.8655C60.9093 22.8655 60.0459 22.002 60.0459 20.8161C60.0459 19.6177 60.9093 18.7411 61.9406 18.7411C62.9587 18.7411 63.7578 19.6177 63.7578 20.8161C63.7578 22.002 62.9587 22.8655 61.9406 22.8655ZM63.6546 18.1611H63.6031C63.2681 17.7617 62.6234 17.4008 61.8115 17.4008C60.1103 17.4008 58.5509 18.8958 58.5509 20.8161C58.5509 22.7236 60.1102 24.2058 61.8115 24.2058C62.6234 24.2058 63.2681 23.8448 63.6031 23.4326H63.6546V23.9223C63.6546 25.2243 62.9587 25.9202 61.8375 25.9202C60.9224 25.9202 60.3553 25.2627 60.123 24.7086L58.8216 25.2499C59.1953 26.152 60.1878 27.2605 61.8375 27.2605C63.5902 27.2605 65.0724 26.2292 65.0724 23.7161V17.6071H63.6546V18.1611ZM66.1034 23.9995H67.5984V13.9982H66.1034V23.9995ZM69.8024 20.7002C69.7637 19.3854 70.8206 18.7154 71.5809 18.7154C72.1742 18.7154 72.6766 19.0117 72.8438 19.4374L69.8024 20.7002ZM74.4422 19.5661C74.159 18.8054 73.295 17.4008 71.5293 17.4008C69.7765 17.4008 68.3203 18.7798 68.3203 20.8033C68.3203 22.7108 69.7637 24.2058 71.6968 24.2058C73.2566 24.2058 74.159 23.252 74.5326 22.6979L73.3726 21.9245C72.9862 22.4917 72.4574 22.8655 71.6968 22.8655C70.9365 22.8655 70.3953 22.5174 70.0471 21.8345L74.5966 19.9527L74.4422 19.5661ZM38.1956 18.4448V19.8883H41.6496C41.5465 20.7002 41.2758 21.293 40.8633 21.7054C40.3609 22.2083 39.5747 22.7624 38.1956 22.7624C36.0689 22.7624 34.4065 21.0482 34.4065 18.9217C34.4065 16.7951 36.069 15.0808 38.1956 15.0808C39.3427 15.0808 40.1802 15.532 40.799 16.112L41.8171 15.0939C40.9537 14.2689 39.8065 13.6374 38.1956 13.6374C35.2827 13.6374 32.834 16.0089 32.834 18.9217C32.834 21.8345 35.2827 24.2058 38.1956 24.2058C39.7681 24.2058 40.9537 23.6905 41.8815 22.7236C42.8353 21.7698 43.1319 20.4296 43.1319 19.3471C43.1319 19.0117 43.1062 18.7026 43.0543 18.4448H38.1956ZM47.0587 22.8655C46.0274 22.8655 45.1381 22.0148 45.1381 20.8033C45.1381 19.5789 46.0274 18.7411 47.0587 18.7411C48.0896 18.7411 48.979 19.5789 48.979 20.8033C48.979 22.0148 48.0896 22.8655 47.0587 22.8655ZM47.0587 17.4008C45.1768 17.4008 43.643 18.8314 43.643 20.8033C43.643 22.7623 45.1768 24.2058 47.0587 24.2058C48.9402 24.2058 50.474 22.7623 50.474 20.8033C50.474 18.8314 48.9402 17.4008 47.0587 17.4008ZM54.5093 22.8655C53.4784 22.8655 52.589 22.0148 52.589 20.8033C52.589 19.5789 53.4784 18.7411 54.5093 18.7411C55.5403 18.7411 56.4296 19.5789 56.4296 20.8033C56.4296 22.0148 55.5402 22.8655 54.5093 22.8655ZM54.5093 17.4008C52.6275 17.4008 51.094 18.8314 51.094 20.8033C51.094 22.7623 52.6275 24.2058 54.5093 24.2058C56.3909 24.2058 57.9247 22.7623 57.9247 20.8033C57.9247 18.8314 56.3909 17.4008 54.5093 17.4008Z" fill="white"/>
<path d="M8.40724 6.0888C8.13877 6.33102 7.97852 6.73503 7.97852 7.27132V7.15008V24.847V24.7304C7.97852 25.2257 8.11597 25.6081 8.34876 25.8545L8.40818 25.9113V25.9116C8.59659 26.0816 8.8382 26.1719 9.11509 26.1716C9.38565 26.1716 9.69006 26.0854 10.0113 25.9032L21.6235 19.3054L25.6122 17.0388C26.1188 16.751 26.4032 16.3798 26.4507 16.0016V16.0001C26.4032 15.621 26.1188 15.2501 25.6122 14.9623L21.6232 12.696L10.0114 6.09814C9.68941 5.91568 9.38479 5.8291 9.11351 5.8291C8.83694 5.8291 8.59565 5.91909 8.40731 6.0888H8.40724Z" fill="#00C1FF"/>
<path d="M8.40821 25.9121L8.34876 25.8552C8.11597 25.6089 7.97852 25.2264 7.97852 24.7312V24.8477V7.15523V7.27208C7.97852 6.7358 8.13877 6.33178 8.40724 6.08956L18.3191 16.0012L8.40821 25.9121Z" fill="url(#paint0_linear_11025_20385)"/>
<path d="M21.6228 19.3057L18.3184 16.0007L21.6225 12.6963L25.6115 14.9625C26.118 15.2504 26.4024 15.6213 26.45 16.0004V16.0019C26.4024 16.3801 26.118 16.7514 25.6115 17.0391L21.6228 19.3056" fill="url(#paint1_linear_11025_20385)"/>
<path d="M9.11505 26.1719C8.83819 26.1721 8.59658 26.0818 8.4082 25.9118V25.9116L18.3191 16.0006L21.6235 19.3056L10.0113 25.9034C9.69002 26.0856 9.38561 26.1719 9.11505 26.1719Z" fill="url(#paint2_linear_11025_20385)"/>
<path d="M18.3181 16.001L8.40625 6.08938C8.59467 5.91968 8.83595 5.82968 9.11248 5.82968C9.38376 5.82968 9.68842 5.91622 10.0103 6.09873L21.6222 12.6966L18.3181 16.001" fill="url(#paint3_linear_11025_20385)"/>
<path d="M9.11425 26.2891C8.83738 26.2891 8.59546 26.1987 8.40704 26.0288L8.40672 26.029C8.40594 26.0283 8.40511 26.0275 8.40423 26.0269L8.3527 25.9766C8.35108 25.975 8.34956 25.9731 8.34766 25.9713L8.40708 25.9119C8.59549 26.0819 8.83706 26.1722 9.11399 26.1719C9.38452 26.1719 9.68893 26.0856 10.0102 25.9035L21.6224 19.3056L21.6968 19.38L21.6214 19.4228L10.0102 26.0203C9.71738 26.1863 9.43889 26.2728 9.18735 26.2872C9.163 26.2884 9.13862 26.2891 9.11425 26.2891Z" fill="url(#paint4_linear_11025_20385)"/>
<path d="M8.34816 25.9717C8.11575 25.7254 7.97852 25.3432 7.97852 24.8476V24.7311C7.97852 25.2263 8.11575 25.6088 8.34816 25.8551L8.40748 25.912L8.34816 25.9717Z" fill="url(#paint5_linear_11025_20385)"/>
<path d="M21.6974 19.3798L21.623 19.3054L25.6117 17.0389C26.1183 16.7511 26.4027 16.3799 26.4502 16.0017C26.4502 16.1405 26.4193 16.2792 26.3578 16.4143C26.2337 16.6864 25.985 16.9436 25.6118 17.1558L21.6974 19.3799" fill="url(#paint6_linear_11025_20385)"/>
<path d="M26.4506 16C26.403 15.6209 26.1187 15.25 25.6121 14.9622L21.623 12.6959L21.6974 12.6215H21.6978L25.6121 14.8456C26.1706 15.1631 26.4503 15.5815 26.4506 16Z" fill="url(#paint7_linear_11025_20385)"/>
<path d="M7.97852 7.27148V7.14924C7.97852 7.10516 7.9797 7.06205 7.98197 7.0202V7.0183C7.98197 7.01772 7.98197 7.01711 7.98218 7.01646V7.01175C8.00624 6.58516 8.13851 6.25241 8.34816 6.03021L8.40655 6.08892C8.13851 6.33118 7.97852 6.7352 7.97852 7.27148Z" fill="url(#paint8_linear_11025_20385)"/>
<path d="M21.622 12.6963L10.0102 6.09838C9.68828 5.91592 9.38365 5.82938 9.11237 5.82938C8.8358 5.82938 8.59452 5.91937 8.40614 6.08907L8.34766 6.03032C8.36592 6.01099 8.3849 5.99234 8.40456 5.97442C8.40517 5.97377 8.40614 5.97312 8.40675 5.97251C8.59365 5.8041 8.83238 5.71411 9.10647 5.71249H9.11237C9.38365 5.71249 9.68828 5.79907 10.0102 5.98161L21.6968 12.6216L21.6964 12.6219L21.622 12.6963Z" fill="url(#paint9_linear_11025_20385)"/>
<defs>
<linearGradient id="paint0_linear_11025_20385" x1="14.3128" y1="6.96824" x2="5.78482" y2="15.5237" gradientUnits="userSpaceOnUse">
<stop stop-color="#00A0FF"/>
<stop offset="0.00657" stop-color="#00A1FF"/>
<stop offset="0.2601" stop-color="#00BEFF"/>
<stop offset="0.5122" stop-color="#00D2FF"/>
<stop offset="0.7604" stop-color="#00DFFF"/>
<stop offset="1" stop-color="#00E3FF"/>
</linearGradient>
<linearGradient id="paint1_linear_11025_20385" x1="27.0672" y1="15.9436" x2="7.70954" y2="15.9436" gradientUnits="userSpaceOnUse">
<stop stop-color="#FFE000"/>
<stop offset="0.4087" stop-color="#FFBD00"/>
<stop offset="0.7754" stop-color="#FFA500"/>
<stop offset="1" stop-color="#FF9C00"/>
</linearGradient>
<linearGradient id="paint2_linear_11025_20385" x1="19.8691" y1="19.1428" x2="5.41768" y2="33.5351" gradientUnits="userSpaceOnUse">
<stop stop-color="#FF3A44"/>
<stop offset="1" stop-color="#C31162"/>
</linearGradient>
<linearGradient id="paint3_linear_11025_20385" x1="5.85168" y1="4.61994" x2="12.2924" y2="11.0441" gradientUnits="userSpaceOnUse">
<stop stop-color="#32A071"/>
<stop offset="0.0685" stop-color="#2DA771"/>
<stop offset="0.4762" stop-color="#15CF74"/>
<stop offset="0.8009" stop-color="#06E775"/>
<stop offset="1" stop-color="#00F076"/>
</linearGradient>
<linearGradient id="paint4_linear_11025_20385" x1="19.8608" y1="21.4354" x2="8.28751" y2="33.0462" gradientUnits="userSpaceOnUse">
<stop stop-color="#CC2E36"/>
<stop offset="1" stop-color="#9C0E4E"/>
</linearGradient>
<linearGradient id="paint5_linear_11025_20385" x1="9.29679" y1="6.9681" x2="1.78374" y2="14.4934" gradientUnits="userSpaceOnUse">
<stop stop-color="#008DE0"/>
<stop offset="0.00657" stop-color="#008DE0"/>
<stop offset="0.2601" stop-color="#00A7E0"/>
<stop offset="0.5122" stop-color="#00B8E0"/>
<stop offset="0.7604" stop-color="#00C4E0"/>
<stop offset="1" stop-color="#00C7E0"/>
</linearGradient>
<linearGradient id="paint6_linear_11025_20385" x1="27.0675" y1="16.001" x2="7.70982" y2="16.001" gradientUnits="userSpaceOnUse">
<stop stop-color="#E0C500"/>
<stop offset="0.4087" stop-color="#E0A600"/>
<stop offset="0.7754" stop-color="#E09100"/>
<stop offset="1" stop-color="#E08900"/>
</linearGradient>
<linearGradient id="paint7_linear_11025_20385" x1="27.0678" y1="16.0008" x2="7.7102" y2="16.0008" gradientUnits="userSpaceOnUse">
<stop stop-color="#FFE840"/>
<stop offset="0.4087" stop-color="#FFCE40"/>
<stop offset="0.7754" stop-color="#FFBC40"/>
<stop offset="1" stop-color="#FFB540"/>
</linearGradient>
<linearGradient id="paint8_linear_11025_20385" x1="9.28864" y1="6.98123" x2="2.05224" y2="13.9153" gradientUnits="userSpaceOnUse">
<stop stop-color="#40B8FF"/>
<stop offset="0.00657" stop-color="#40B9FF"/>
<stop offset="0.2601" stop-color="#40CEFF"/>
<stop offset="0.5122" stop-color="#40DDFF"/>
<stop offset="0.7604" stop-color="#40E7FF"/>
<stop offset="1" stop-color="#40EAFF"/>
</linearGradient>
<linearGradient id="paint9_linear_11025_20385" x1="5.83709" y1="6.71575" x2="11.0051" y2="11.9005" gradientUnits="userSpaceOnUse">
<stop stop-color="#65B895"/>
<stop offset="0.0685" stop-color="#62BD95"/>
<stop offset="0.4762" stop-color="#50DB97"/>
<stop offset="0.8009" stop-color="#44ED98"/>
<stop offset="1" stop-color="#40F498"/>
</linearGradient>
</defs>
</svg>
