<svg width="96" height="32" viewBox="0 0 96 32" fill="none" xmlns="http://www.w3.org/2000/svg">
<path d="M88.3549 7.99998e-05H7.64915C7.35497 7.99998e-05 7.06432 7.99997e-05 6.77086 0.00168C6.52529 0.00327999 6.28165 0.00791998 6.03367 0.01184C5.49498 0.0181589 4.95755 0.0654156 4.42606 0.1532C3.89531 0.242895 3.38118 0.412001 2.90107 0.654798C2.42157 0.899661 1.98343 1.21783 1.60256 1.59776C1.21969 1.97659 0.90053 2.41447 0.657358 2.89455C0.413511 3.37373 0.24443 3.88722 0.155956 4.41727C0.0666351 4.94663 0.0185706 5.4821 0.0121941 6.01887C0.00473324 6.26414 0.00393099 6.51022 0 6.75558V25.2469C0.00393099 25.4953 0.00473324 25.7359 0.0121941 25.9845C0.0185767 26.5212 0.0666411 27.0566 0.155956 27.5859C0.244192 28.1163 0.413283 28.63 0.657358 29.1094C0.900414 29.5879 1.21962 30.0241 1.60256 30.4008C1.98199 30.7824 2.42041 31.1008 2.90107 31.3438C3.38118 31.5872 3.89525 31.7573 4.42606 31.8484C4.95764 31.9355 5.49501 31.9828 6.03367 31.9898C6.28157 31.9953 6.52529 31.9984 6.77094 31.9984C7.06432 32 7.35497 32 7.64915 32H88.3549C88.6433 32 88.9362 32 89.2245 31.9984C89.469 31.9984 89.7197 31.9953 89.9642 31.9898C90.5018 31.9831 91.0382 31.9359 91.5686 31.8484C92.1012 31.7567 92.6171 31.5866 93.0995 31.3438C93.5797 31.1006 94.0178 30.7823 94.3969 30.4008C94.7788 30.0226 95.0987 29.5868 95.3448 29.1094C95.587 28.6297 95.7545 28.116 95.8414 27.5859C95.9309 27.0565 95.9807 26.5212 95.9904 25.9844C95.9936 25.7359 95.9936 25.4953 95.9936 25.2469C96 24.9563 96 24.6672 96 24.3719V7.62902C96 7.33598 96 7.04542 95.9936 6.75558C95.9936 6.51022 95.9936 6.26414 95.9904 6.01879C95.9807 5.48197 95.9309 4.94662 95.8415 4.41719C95.7543 3.8875 95.5868 3.37411 95.3448 2.89463C94.8496 1.93227 94.0644 1.1489 93.0995 0.654718C92.6171 0.412516 92.1011 0.243455 91.5686 0.15312C91.0383 0.0649623 90.5018 0.0177025 89.9642 0.01176C89.7197 0.00783998 89.469 0.00311999 89.2245 0.0016C88.9362 0 88.6433 7.99998e-05 88.3549 7.99998e-05Z" fill="#A6A6A6"/>
<path d="M6.7756 31.3002C6.53116 31.3002 6.29265 31.2971 6.05013 31.2916C5.54776 31.2851 5.04657 31.2416 4.55066 31.1612C4.08824 31.0818 3.64029 30.934 3.22158 30.7228C2.80669 30.5134 2.42828 30.2388 2.10085 29.9096C1.76864 29.5842 1.49207 29.2068 1.28208 28.7924C1.06979 28.3752 0.922883 27.9281 0.846458 27.4666C0.763954 26.9707 0.719328 26.4693 0.712965 25.9666C0.70783 25.7979 0.701172 25.2362 0.701172 25.2362V6.7557C0.701172 6.7557 0.708232 6.20258 0.712965 6.04002C0.719078 5.53819 0.763463 5.03755 0.845736 4.54243C0.922311 4.07964 1.06935 3.63124 1.28176 3.21275C1.49094 2.79859 1.76595 2.42091 2.09611 2.09435C2.42593 1.76469 2.80557 1.48867 3.22118 1.27635C3.63894 1.06587 4.08605 0.919195 4.54753 0.841235C5.04508 0.760131 5.54802 0.716302 6.05214 0.710115L6.776 0.700195H89.2215L89.954 0.710355C90.4535 0.716273 90.9519 0.759757 91.4449 0.840435C91.9111 0.919395 92.3629 1.06712 92.7854 1.27875C93.618 1.70662 94.2955 2.38355 94.7228 3.21467C94.9318 3.63029 95.0766 4.07506 95.1522 4.53387C95.2354 5.03304 95.2821 5.5376 95.2916 6.04354C95.294 6.2701 95.294 6.51346 95.294 6.7557C95.3004 7.0557 95.3004 7.34122 95.3004 7.62914V24.372C95.3004 24.6626 95.3004 24.9462 95.294 25.2321C95.294 25.4923 95.294 25.7306 95.2908 25.9759C95.2814 26.4728 95.2356 26.9684 95.1536 27.4587C95.0788 27.9235 94.9327 28.3741 94.7204 28.7947C94.509 29.2046 94.2341 29.5787 93.9057 29.9032C93.578 30.2343 93.1989 30.5105 92.7831 30.7212C92.3617 30.934 91.9106 31.0823 91.4449 31.1611C90.9491 31.2418 90.4478 31.2855 89.9454 31.2916C89.7055 31.2972 89.4655 31.3 89.2255 31.3001L88.3558 31.3017L6.7756 31.3002Z" fill="black"/>
<path d="M19.8692 16.241C19.8778 15.5733 20.0556 14.9186 20.3862 14.3379C20.7167 13.7571 21.1892 13.2692 21.7596 12.9194C21.3972 12.4033 20.9192 11.9786 20.3634 11.6789C19.8075 11.3793 19.1893 11.213 18.5578 11.1933C17.2106 11.0522 15.9046 11.9971 15.2181 11.9971C14.5184 11.9971 13.4614 11.2073 12.3233 11.2306C11.587 11.2543 10.8696 11.4678 10.2407 11.8502C9.61181 12.2327 9.09301 12.771 8.73482 13.4129C7.18328 16.0917 8.34059 20.0284 9.82691 22.1937C10.5705 23.254 11.4395 24.4384 12.5767 24.3964C13.6894 24.3504 14.105 23.6888 15.4482 23.6888C16.779 23.6888 17.1689 24.3964 18.3291 24.3696C19.5231 24.3504 20.2754 23.3047 20.9929 22.2344C21.5272 21.4789 21.9383 20.6439 22.2111 19.7604C21.5174 19.4678 20.9254 18.978 20.5089 18.3522C20.0925 17.7264 19.87 16.9921 19.8692 16.241ZM17.6777 9.76919C18.3288 8.98983 18.6495 7.98809 18.5718 6.97672C17.5772 7.08089 16.6584 7.55494 15.9986 8.3044C15.676 8.67053 15.4289 9.09648 15.2714 9.55789C15.114 10.0193 15.0493 10.5071 15.081 10.9935C15.5786 10.9986 16.0707 10.8911 16.5205 10.679C16.9703 10.4669 17.366 10.1559 17.6777 9.76919ZM33.9352 21.7122H30.1379L29.226 24.3973H27.6175L31.2143 14.4629H32.8854L36.4822 24.3973H34.8463L33.9352 21.7122ZM30.5311 20.4731H33.5412L32.0573 16.1153H32.0158L30.5311 20.4731ZM44.25 20.7763C44.25 23.027 43.0419 24.4731 41.2189 24.4731C40.757 24.4972 40.2977 24.3911 39.8936 24.167C39.4894 23.9429 39.1567 23.6098 38.9335 23.2059H38.899V26.7934H37.4081V17.1544H38.8513V18.3591H38.8787C39.1121 17.9571 39.4505 17.6258 39.8577 17.4003C40.2649 17.1748 40.7259 17.0636 41.1914 17.0786C43.0348 17.0786 44.25 18.5318 44.25 20.7763ZM42.7175 20.7763C42.7175 19.3099 41.9576 18.3458 40.7982 18.3458C39.659 18.3458 38.8928 19.3301 38.8928 20.7762C38.8928 22.2356 39.659 23.213 40.7982 23.213C41.9576 23.213 42.7175 22.256 42.7175 20.7763ZM52.2442 20.7763C52.2442 23.027 51.0362 24.4731 49.2131 24.4731C48.7512 24.4972 48.292 24.3911 47.8878 24.167C47.4836 23.9429 47.1509 23.6098 46.9278 23.2059H46.8933V26.7934H45.4024V17.1544H46.8455V18.3591H46.8729C47.1063 17.9571 47.4447 17.6258 47.8519 17.4003C48.2591 17.1748 48.7201 17.0636 49.1856 17.0786C51.0291 17.0786 52.2442 18.5318 52.2442 20.7763ZM50.7118 20.7763C50.7118 19.3099 49.9518 18.3458 48.7924 18.3458C47.6532 18.3458 46.887 19.3301 46.887 20.7762C46.887 22.2356 47.6532 23.213 48.7924 23.213C49.9518 23.213 50.7118 22.256 50.7118 20.7763ZM57.5278 21.6294C57.6382 22.6145 58.5979 23.2614 59.9094 23.2614C61.166 23.2614 62.0701 22.6145 62.0701 21.7262C62.0701 20.9551 61.5249 20.4934 60.2338 20.177L58.9426 19.8668C57.1133 19.4262 56.2641 18.5731 56.2641 17.1887C56.2641 15.4746 57.762 14.2973 59.889 14.2973C61.9941 14.2973 63.4372 15.4746 63.4858 17.1887H61.9808C61.8907 16.1973 61.0689 15.5989 59.8678 15.5989C58.6669 15.5989 57.845 16.2044 57.845 17.0856C57.845 17.788 58.37 18.2013 59.6539 18.5176L60.7516 18.7864C62.7955 19.2684 63.6449 20.0872 63.6449 21.5402C63.6449 23.3988 62.1602 24.5629 59.7989 24.5629C57.5895 24.5629 56.0979 23.4261 56.0016 21.6293L57.5278 21.6294ZM66.8624 15.4404V17.1544H68.2436V18.3317H66.8624V22.3247C66.8624 22.945 67.139 23.234 67.7462 23.234C67.9101 23.2312 68.0738 23.2197 68.2366 23.1996V24.37C67.9636 24.4209 67.6862 24.4439 67.4085 24.4387C65.938 24.4387 65.3645 23.888 65.3645 22.4832V18.3317H64.3084V17.1544H65.3645V15.4404H66.8624ZM69.0436 20.7763C69.0436 18.4973 70.3895 17.0653 72.4884 17.0653C74.5943 17.0653 75.934 18.4973 75.934 20.7763C75.934 23.0614 74.6013 24.4872 72.4883 24.4872C70.3762 24.4872 69.0436 23.0614 69.0436 20.7763ZM74.4148 20.7763C74.4148 19.213 73.6964 18.2903 72.4883 18.2903C71.2803 18.2903 70.5626 19.22 70.5626 20.7763C70.5626 22.3458 71.2803 23.2614 72.4883 23.2614C73.6964 23.2614 74.4148 22.3458 74.4148 20.7763ZM77.1631 17.1544H78.585V18.3872H78.6195C78.7158 18.0021 78.942 17.6619 79.2601 17.4236C79.5783 17.1853 79.969 17.0635 80.3667 17.0786C80.5385 17.078 80.7098 17.0966 80.8775 17.1341V18.5247C80.6606 18.4586 80.4343 18.4283 80.2076 18.4349C79.991 18.4261 79.7751 18.4642 79.5746 18.5465C79.3742 18.6288 79.194 18.7534 79.0464 18.9117C78.8988 19.07 78.7873 19.2583 78.7196 19.4636C78.6519 19.669 78.6295 19.8865 78.654 20.1012V24.3973H77.1631V17.1544ZM87.7513 22.27C87.5508 23.5848 86.2667 24.4872 84.6239 24.4872C82.5109 24.4872 81.1994 23.0755 81.1994 20.8106C81.1994 18.5388 82.518 17.0653 84.5611 17.0653C86.5707 17.0653 87.8344 18.4419 87.8344 20.638V21.1473H82.7044V21.2372C82.6807 21.5037 82.7142 21.7723 82.8026 22.0249C82.891 22.2776 83.0322 22.5086 83.217 22.7027C83.4018 22.8967 83.6259 23.0493 83.8744 23.1504C84.1229 23.2514 84.3901 23.2986 84.6583 23.2888C85.0106 23.3217 85.3642 23.2403 85.6664 23.0568C85.9686 22.8732 86.2034 22.5973 86.3357 22.27H87.7513ZM82.7115 20.1083H86.3427C86.3561 19.8686 86.3196 19.6288 86.2356 19.4038C86.1517 19.1788 86.022 18.9736 85.8547 18.801C85.6874 18.6283 85.4861 18.4921 85.2635 18.4007C85.0409 18.3093 84.8018 18.2648 84.5611 18.27C84.3183 18.2685 84.0777 18.3151 83.853 18.4069C83.6284 18.4987 83.4242 18.6339 83.2522 18.8048C83.0802 18.9757 82.9439 19.1789 82.8511 19.4026C82.7583 19.6263 82.7108 19.8662 82.7115 20.1083ZM30.3443 6.98528C30.6569 6.96291 30.9705 7.00999 31.2626 7.12314C31.5547 7.23629 31.818 7.41268 32.0335 7.63958C32.249 7.86649 32.4112 8.13826 32.5086 8.43528C32.606 8.7323 32.6361 9.04718 32.5967 9.35719C32.5967 10.8821 31.7701 11.7588 30.3443 11.7588H28.6152V6.9852L30.3443 6.98528ZM29.3587 11.0837H30.2613C30.4846 11.097 30.7081 11.0604 30.9155 10.9767C31.1229 10.8931 31.309 10.7643 31.4602 10.5998C31.6114 10.4354 31.724 10.2394 31.7896 10.0261C31.8553 9.81281 31.8724 9.58761 31.8398 9.36687C31.8701 9.14701 31.8512 8.9232 31.7845 8.71147C31.7178 8.49974 31.605 8.30534 31.4542 8.1422C31.3033 7.97906 31.1181 7.85121 30.9119 7.76782C30.7056 7.68442 30.4835 7.64755 30.2613 7.65984H29.3587V11.0837ZM33.4365 9.95599C33.4138 9.71926 33.441 9.4804 33.5163 9.25475C33.5915 9.02909 33.7133 8.82161 33.8737 8.64563C34.0341 8.46964 34.2296 8.32903 34.4477 8.2328C34.6658 8.13658 34.9016 8.08688 35.1401 8.08688C35.3786 8.08688 35.6144 8.13658 35.8325 8.2328C36.0506 8.32903 36.2461 8.46964 36.4065 8.64563C36.5669 8.82161 36.6887 9.02909 36.764 9.25475C36.8392 9.4804 36.8664 9.71926 36.8437 9.95599C36.8669 10.193 36.8401 10.4322 36.765 10.6583C36.69 10.8844 36.5683 11.0923 36.4079 11.2687C36.2474 11.4451 36.0518 11.586 35.8334 11.6825C35.6151 11.7789 35.3789 11.8288 35.1401 11.8288C34.9013 11.8288 34.6651 11.7789 34.4468 11.6825C34.2285 11.586 34.0328 11.4451 33.8723 11.2687C33.7119 11.0923 33.5902 10.8844 33.5152 10.6583C33.4401 10.4322 33.4133 10.193 33.4365 9.95599ZM36.1104 9.95599C36.1104 9.17511 35.7586 8.71848 35.1413 8.71848C34.5216 8.71848 34.173 9.17511 34.173 9.95599C34.173 10.7431 34.5217 11.1962 35.1413 11.1962C35.7586 11.1962 36.1104 10.74 36.1104 9.95599ZM41.3728 11.7587H40.6331L39.8866 9.10559H39.8302L39.0867 11.7587H38.3542L37.3585 8.15632H38.0815L38.7287 10.9051H38.782L39.5247 8.15632H40.2086L40.9513 10.9051H41.0077L41.6517 8.15632H42.3646L41.3728 11.7587ZM43.2021 8.1564H43.8884V8.72864H43.9417C44.032 8.52308 44.1845 8.35077 44.3777 8.23572C44.571 8.12067 44.7954 8.06861 45.0197 8.0868C45.1955 8.07362 45.372 8.10005 45.5361 8.16413C45.7003 8.22821 45.8478 8.32829 45.9679 8.45697C46.088 8.58564 46.1775 8.73961 46.2298 8.90746C46.2821 9.07531 46.2959 9.25275 46.2701 9.42663V11.7586H45.5572V9.60519C45.5572 9.02631 45.3049 8.73839 44.7776 8.73839C44.6583 8.73286 44.5392 8.75312 44.4284 8.79779C44.3177 8.84245 44.2179 8.91047 44.136 8.99717C44.054 9.08388 43.9919 9.18722 43.9538 9.30012C43.9156 9.41302 43.9024 9.53281 43.915 9.65127V11.7587H43.2021V8.1564ZM47.4061 6.75008H48.119V11.7587H47.4061V6.75008ZM49.1101 9.95599C49.0873 9.71923 49.1145 9.48034 49.1898 9.25465C49.2651 9.02896 49.3868 8.82146 49.5473 8.64545C49.7077 8.46944 49.9032 8.32881 50.1213 8.23257C50.3395 8.13634 50.5753 8.08663 50.8139 8.08663C51.0524 8.08663 51.2883 8.13634 51.5064 8.23257C51.7245 8.32881 51.92 8.46944 52.0805 8.64545C52.2409 8.82146 52.3626 9.02896 52.4379 9.25465C52.5132 9.48034 52.5404 9.71923 52.5177 9.95599C52.5408 10.193 52.5139 10.4321 52.4388 10.6581C52.3636 10.8841 52.2419 11.092 52.0815 11.2683C51.921 11.4446 51.7254 11.5855 51.507 11.6819C51.2887 11.7783 51.0526 11.8281 50.8139 11.8281C50.5751 11.8281 50.339 11.7783 50.1207 11.6819C49.9024 11.5855 49.7067 11.4446 49.5462 11.2683C49.3858 11.092 49.2641 10.8841 49.189 10.6581C49.1138 10.4321 49.087 10.193 49.1101 9.95599ZM51.7839 9.95599C51.7839 9.17511 51.4321 8.71848 50.8148 8.71848C50.1951 8.71848 49.8465 9.17511 49.8465 9.95599C49.8465 10.7431 50.1952 11.1962 50.8148 11.1962C51.4321 11.1962 51.7839 10.74 51.7839 9.95599ZM53.2682 10.74C53.2682 10.0915 53.7523 9.71767 54.6118 9.66455L55.5903 9.60831V9.29735C55.5903 8.91687 55.338 8.70208 54.8507 8.70208C54.4528 8.70208 54.1769 8.84775 54.0978 9.10247H53.4076C53.4804 8.48368 54.0641 8.08688 54.8836 8.08688C55.7893 8.08688 56.3001 8.53648 56.3001 9.29735V11.7587H55.6138V11.2525H55.5574C55.4429 11.4341 55.2821 11.5821 55.0915 11.6815C54.9009 11.7808 54.6872 11.828 54.4723 11.8181C54.3207 11.8338 54.1674 11.8177 54.0224 11.7707C53.8774 11.7237 53.7438 11.647 53.6304 11.5454C53.5169 11.4439 53.4261 11.3197 53.3637 11.181C53.3013 11.0423 53.2688 10.892 53.2682 10.74ZM55.5903 10.4322V10.131L54.7081 10.1872C54.2106 10.2204 53.985 10.3892 53.985 10.7067C53.985 11.0309 54.267 11.2197 54.6548 11.2197C54.7685 11.2311 54.8833 11.2197 54.9924 11.186C55.1015 11.1524 55.2027 11.0971 55.29 11.0237C55.3772 10.9502 55.4488 10.86 55.5004 10.7583C55.552 10.6567 55.5825 10.5458 55.5903 10.4322ZM57.2371 9.95599C57.2371 8.81767 57.8239 8.09664 58.7366 8.09664C58.9623 8.08626 59.1864 8.14018 59.3826 8.25209C59.5788 8.36401 59.7389 8.5293 59.8444 8.72864H59.8977V6.75H60.6105V11.7586H59.9274V11.1894H59.871C59.7574 11.3874 59.5917 11.5507 59.3917 11.6615C59.1918 11.7722 58.9652 11.8264 58.7367 11.818C57.8176 11.818 57.2371 11.0969 57.2371 9.95599ZM57.9736 9.95599C57.9736 10.72 58.3347 11.1798 58.9387 11.1798C59.5395 11.1798 59.911 10.7134 59.911 9.95903C59.911 9.20831 59.5357 8.73527 58.9387 8.73527C58.3386 8.73527 57.9736 9.19815 57.9736 9.95599ZM63.5602 9.95599C63.5375 9.71926 63.5647 9.4804 63.6399 9.25475C63.7152 9.02909 63.837 8.82161 63.9974 8.64563C64.1578 8.46964 64.3533 8.32903 64.5714 8.2328C64.7895 8.13658 65.0253 8.08688 65.2638 8.08688C65.5023 8.08688 65.7381 8.13658 65.9562 8.2328C66.1743 8.32903 66.3698 8.46964 66.5302 8.64563C66.6906 8.82161 66.8124 9.02909 66.8876 9.25475C66.9629 9.4804 66.9901 9.71926 66.9674 9.95599C66.9906 10.193 66.9638 10.4322 66.8887 10.6583C66.8137 10.8844 66.692 11.0923 66.5316 11.2687C66.3711 11.4451 66.1754 11.586 65.9571 11.6825C65.7388 11.7789 65.5026 11.8288 65.2638 11.8288C65.025 11.8288 64.7888 11.7789 64.5705 11.6825C64.3521 11.586 64.1565 11.4451 63.996 11.2687C63.8356 11.0923 63.7139 10.8844 63.6388 10.6583C63.5638 10.4322 63.537 10.193 63.5602 9.95599ZM66.2341 9.95599C66.2341 9.17511 65.8823 8.71848 65.265 8.71848C64.6453 8.71848 64.2967 9.17511 64.2967 9.95599C64.2967 10.7431 64.6453 11.1962 65.265 11.1962C65.8823 11.1962 66.2341 10.74 66.2341 9.95599ZM67.924 8.1564H68.6103V8.72864H68.6635C68.7539 8.52308 68.9063 8.35077 69.0996 8.23572C69.2928 8.12067 69.5173 8.06861 69.7416 8.0868C69.9174 8.07362 70.0939 8.10005 70.258 8.16413C70.4221 8.22821 70.5697 8.32829 70.6898 8.45697C70.8099 8.58564 70.8994 8.73961 70.9517 8.90746C71.004 9.07531 71.0178 9.25275 70.992 9.42663V11.7586H70.279V9.60519C70.279 9.02631 70.0267 8.73839 69.4995 8.73839C69.3801 8.73286 69.261 8.75312 69.1503 8.79779C69.0395 8.84245 68.9398 8.91047 68.8578 8.99717C68.7759 9.08388 68.7137 9.18722 68.6756 9.30012C68.6375 9.41302 68.6243 9.53281 68.6369 9.65127V11.7587H67.924L67.924 8.1564ZM75.0204 7.25952V8.1728H75.8031V8.77159H75.0204V10.6239C75.0204 11.0013 75.1763 11.1665 75.5312 11.1665C75.6221 11.1662 75.7128 11.1607 75.803 11.1501V11.7423C75.675 11.7651 75.5453 11.7773 75.4152 11.7786C74.6224 11.7786 74.3067 11.5005 74.3067 10.806V8.77159H73.7332V8.17272H74.3067V7.2596L75.0204 7.25952ZM76.7769 6.75008H77.4836V8.73527H77.54C77.6347 8.52781 77.7913 8.35453 77.9884 8.23904C78.1856 8.12355 78.4136 8.07148 78.6414 8.08992C78.8163 8.08043 78.9911 8.10954 79.1534 8.17517C79.3157 8.24081 79.4614 8.34136 79.5803 8.46963C79.6991 8.59791 79.7881 8.75076 79.8408 8.91728C79.8936 9.0838 79.9089 9.25988 79.8856 9.43295V11.7587H79.1719V9.60831C79.1719 9.03287 78.9031 8.74152 78.3994 8.74152C78.2769 8.7315 78.1536 8.7483 78.0383 8.79075C77.9229 8.83319 77.8183 8.90026 77.7317 8.98724C77.645 9.07423 77.5785 9.17905 77.5367 9.29435C77.4949 9.40966 77.4789 9.53267 77.4898 9.65479V11.7587H76.7769V6.75008ZM84.0425 10.786C83.9457 11.1152 83.7358 11.4 83.4497 11.5906C83.1635 11.7811 82.8193 11.8652 82.4772 11.8282C82.2392 11.8345 82.0027 11.789 81.7841 11.695C81.5655 11.601 81.37 11.4607 81.2112 11.2838C81.0524 11.1068 80.9342 10.8976 80.8646 10.6705C80.7951 10.4435 80.7759 10.2041 80.8085 9.96887C80.7768 9.73296 80.7963 9.493 80.8656 9.26525C80.935 9.03751 81.0527 8.82728 81.2106 8.64882C81.3685 8.47035 81.5631 8.32781 81.7811 8.23085C81.9991 8.13388 82.2354 8.08476 82.4741 8.0868C83.4792 8.0868 84.0856 8.7716 84.0856 9.90279V10.1509H81.5347V10.1907C81.5236 10.3229 81.5402 10.456 81.5836 10.5814C81.6271 10.7068 81.6963 10.8217 81.7869 10.9189C81.8774 11.0161 81.9874 11.0933 82.1096 11.1456C82.2319 11.1979 82.3638 11.2242 82.4968 11.2227C82.6673 11.2431 82.8401 11.2125 82.9931 11.1347C83.1462 11.057 83.2726 10.9356 83.3562 10.786H84.0425ZM81.5347 9.62511H83.3594C83.3683 9.50421 83.3519 9.38277 83.311 9.2686C83.2701 9.15443 83.2057 9.05005 83.122 8.96216C83.0382 8.87428 82.937 8.80483 82.8247 8.75829C82.7125 8.71175 82.5917 8.68914 82.4701 8.69191C82.3468 8.69037 82.2245 8.71345 82.1103 8.7598C81.996 8.80616 81.8923 8.87485 81.8051 8.96182C81.7179 9.04879 81.6491 9.15228 81.6027 9.2662C81.5562 9.38012 81.5331 9.50215 81.5347 9.62511Z" fill="white"/>
</svg>
